# xmcd CD database file
#
# Track frame offsets:
#	150
#	17610
#	35510
#	52325
#	64785
#	80510
#	97652
#	113412
#	130825
#	148117
#	167622
#
# Disc length: 2449 seconds
#
# Revision: 0
# Processed by: cddbd v1.5PL3 Copyright (c) Steve Scherf et al.
# Submitted via: CDex 1.51
#
DISCID=8a098f0b
DTITLE=NICKELBACK - Three-Sided Coin
DYEAR=1900
DGENRE=Hard Rock
TTITLE0=Too Bad
TTITLE1=Breathe
TTITLE2=How You Remind Me
TTITLE3=Old Enough
TTITLE4=Leader Of Man
TTITLE5=Little Friend
TTITLE6=One Last Run
TTITLE7=Just Four
TTITLE8=Woke Up This Morning
TTITLE9=Never Again
TTITLE10=Yanking Out My...
EXTD=
EXTT0=
EXTT1=
EXTT2=
EXTT3=
EXTT4=
EXTT5=
EXTT6=
EXTT7=
EXTT8=
EXTT9=
EXTT10=
PLAYORDER=
